<svg id="visual" viewBox="0 0 960 540" width="960" height="540" xmlns="http://www.w3.org/2000/svg" xmlns:xlink="http://www.w3.org/1999/xlink" version="1.1"><rect x="0" y="0" width="960" height="540" fill="#00679b"></rect><path d="M0 288L26.7 302.5C53.3 317 106.7 346 160 349.2C213.3 352.3 266.7 329.7 320 336.5C373.3 343.3 426.7 379.7 480 397.8C533.3 416 586.7 416 640 406.2C693.3 396.3 746.7 376.7 800 374.8C853.3 373 906.7 389 933.3 397L960 405L960 541L933.3 541C906.7 541 853.3 541 800 541C746.7 541 693.3 541 640 541C586.7 541 533.3 541 480 541C426.7 541 373.3 541 320 541C266.7 541 213.3 541 160 541C106.7 541 53.3 541 26.7 541L0 541Z" fill="#0066FF" stroke-linecap="round" stroke-linejoin="miter"></path></svg>