<svg id="visual" viewBox="0 0 540 960" width="540" height="960" xmlns="http://www.w3.org/2000/svg" xmlns:xlink="http://www.w3.org/1999/xlink" version="1.1"><rect x="0" y="0" width="540" height="960" fill="#00679b"></rect><path d="M0 513L15 538.7C30 564.3 60 615.7 90 621.2C120 626.7 150 586.3 180 598.5C210 610.7 240 675.3 270 707.7C300 740 330 740 360 722.5C390 705 420 670 450 666.8C480 663.7 510 692.3 525 706.7L540 721L540 961L525 961C510 961 480 961 450 961C420 961 390 961 360 961C330 961 300 961 270 961C240 961 210 961 180 961C150 961 120 961 90 961C60 961 30 961 15 961L0 961Z" fill="#0066FF" stroke-linecap="round" stroke-linejoin="miter"></path></svg>